<svg viewBox="0 0 340.15 212.01" xmlns="http://www.w3.org/2000/svg"><g fill="#0a1120"><path d="m125.13 212.01c-23.97 0-47.94-9.29-66.2-27.86l-58.93-59.79 35.24-35.84 58.93 59.78c16.98 17.27 44.8 17.27 61.78 0l46.66-47.45c6.71-6.82 17.69-6.82 24.4 0l23.11 23.51-58.78 59.93c-18.26 18.57-42.23 27.71-66.2 27.71h-.01z"/><path d="m304.76 123.78-58.93-59.93c-17.12-17.41-44.66-17.41-61.78 0l-46.65 47.45c-6.71 6.82-17.69 6.82-24.4 0l-23.11-23.51 58.93-59.93c36.52-37.15 95.88-37.15 132.4 0l58.93 59.93-35.38 35.99z"/></g></svg>