<svg xmlns="http://www.w3.org/2000/svg" xmlns:xlink="http://www.w3.org/1999/xlink" width="66.473" height="41.448" viewBox="0 0 66.473 41.448"><defs><clipPath id="a"><rect width="66.473" height="41.448" fill="#fff"/></clipPath></defs><g clip-path="url(#a)"><path d="M24.463,112.656a18.093,18.093,0,0,1-12.943-5.447L0,95.521l6.89-7.007L18.41,100.2a8.468,8.468,0,0,0,12.078,0l9.122-9.277a3.344,3.344,0,0,1,4.77,0l4.519,4.6L37.407,107.238A18.062,18.062,0,0,1,24.463,112.656Z" transform="translate(0 -71.209)" fill="#fff"/><path d="M131.9,24.2l-11.52-11.716a8.419,8.419,0,0,0-12.078,0l-9.121,9.277a3.344,3.344,0,0,1-4.77,0l-4.519-4.6,11.52-11.717a18.1,18.1,0,0,1,25.886,0l11.521,11.717Z" transform="translate(-72.314 0)" fill="#fff"/></g></svg>