<svg height="220" viewBox="0 0 480 220" width="480" xmlns="http://www.w3.org/2000/svg"><g fill="none" fill-rule="evenodd"><path d="m-5-33h830v273h-830z" fill="#fff"/><path d="m426.822422 127.59739c-22.936504.175985-138.011556-1.113739-188.30722-.811043-21.465858.128469-100.842153-3.803048-98.698354 24.354641 1.625 21.366406 40.652857 20.83317 58.800114 20.560392 25.590526-.387168 132.298332 5.131488 171.358347 3.642651 27.472781-1.045355 108.937136 4.234212 103.543338-29.016499-3.247855-20.025396-27.89511-18.874451-46.696225-18.730142z" fill="#b6c1ff"/><path d="m154.028415 21.9231087c-14.687387-1.2849799-24.307042 8.6177617-28.490205 25.5192597l-.225099.9094808-.936107.039113c-2.068662.0864341-3.771899 1.7019716-3.954141 3.7850019-.161975 1.8513935.925162 3.5700553 2.631268 4.2314909l.880386.3413145-.087621.9401585-.008352.0894016c-.951289 10.8732888 2.449145 19.6345104 8.952539 26.1670518 4.798021 4.819524 11.224943 8.0718222 15.075421 8.4086953 3.44983.3018211 10.394903-2.2100104 16.101627-6.4054795 7.468141-5.4904279 12.406072-13.1417518 13.47834-22.611763l.097037-.8570081.83565-.2134655c1.693203-.4325256 2.951797-1.8907604 3.106638-3.6605935.171521-1.9604997-1.057302-3.7606152-2.913436-4.3278591l-.834578-.2550514-.048187-.8713499c-.986701-17.8421347-8.792948-29.9275963-23.66118-31.228398z" stroke="#131315" stroke-width="2.5" transform="matrix(.99254615 -.12186934 .12186934 .99254615 -5.832648 18.822265)"/><path d="m159.433818 54.0374163c0 2.3195961 1.880405 4.2000002 4.200001 4.2000002 2.319596 0 4.2-1.8804041 4.2-4.2000002" stroke="#131315" stroke-linecap="round" stroke-width="2.5" transform="matrix(-.98480775 -.17364818 .17364818 -.98480775 315.033513 139.836693)"/><path d="m135.433817 54.0374163c0 2.3195961 1.880405 4.2000002 4.200001 4.2000002 2.319596 0 4.2-1.8804041 4.2-4.2000002" stroke="#131315" stroke-linecap="round" stroke-width="2.5" transform="matrix(-.98480775 -.17364818 .17364818 -.98480775 267.398125 135.669137)"/><circle cx="163.633819" cy="58.237417" r="9" stroke="#131315" stroke-linecap="round" stroke-width="2.5" transform="matrix(-.76604444 -.64278761 -.64278761 .76604444 326.418886 118.806758)"/><circle cx="139.633818" cy="58.237417" r="9" stroke="#131315" stroke-linecap="round" stroke-width="2.5" transform="matrix(-.76604444 -.64278761 -.64278761 .76604444 284.033818 103.379855)"/><path d="m148.415849 55.864487s3.898828-1.5445313 6.217969.2144532" stroke="#131315" stroke-width="2.5" transform="matrix(-1 0 0 1 303.049668 0)"/><path d="m124.942856 57.5501257h2.524824l3.306563-10.503739" stroke="#131315" stroke-width="2.5" transform="matrix(-1 0 0 1 255.717098 0)"/><path d="m36.9416263 201.046875-1.2002323-32.09021-11.3793578-21.5164c-3.6518458-4.883441-4.8763131-11.16611-3.3256097-17.063507l2.8593539-32.8894894c1.4877565-5.6580073 5.6904034-10.2065296 11.2133429-12.1361944l3.473255-1.2135237c3.5441694-1.2383005 13.8339321-3.1100869 16.7090898-5.5242107l2.8414956-2.3858595 2.0786384 1.4502272c9.0646364 6.3242277 21.2695869 5.6704596 29.6067675-1.5859106l3.1725979 2.7395298c2.6319487 2.2726806 9.6275235 4.0863322 12.8612855 5.3650085l2.920326 1.154739c4.89687 1.9362931 8.553275 6.1235469 9.812107 11.2366581" stroke="#131315" stroke-linecap="round" stroke-width="2.5"/><path d="m172.81837 57.688393 3.147334-.120498 2.668115-8.3304789" stroke="#131315" stroke-width="2.5"/><path d="m147.994976 63.1426503v7.7035906c0 1.161989.913366 1.843585 2.030695 1.525057l2.178653-.6210899" stroke="#131315" stroke-linecap="round" stroke-linejoin="round" stroke-width="2.5" transform="matrix(-1 0 0 1 300.1993 0)"/><path d="m124.100599 51.4111328s9.963379-1.207672 12.924316-14.4169922c3.203096 18.0243308 37.053022 16.3458571 43.278845 11.3169632-1.829297-18.8050788-11.832826-30.2736889-28.685561-30.2736889-31.961852-1.1920929-27.5176 33.3737179-27.5176 33.3737179z" fill="#131315" transform="matrix(-1 0 0 1 303.86183 0)"/><path d="m139.14193 76.9332909s3.635325 4.2000002 10.8 4.2000002c7.164676 0 10.800001-4.2000002 10.800001-4.2000002" stroke="#131315" stroke-linecap="round" stroke-width="2.5" transform="matrix(-.9961947 -.08715574 -.08715574 .9961947 306.201491 13.369046)"/><path d="m118.941626 217.046875-1-38.447266-14.57959-18.159344c-3.6518456-4.883441-4.8763129-11.16611-3.32561-17.063507l7.859354-29.889489c1.487757-5.658008 5.690404-10.20653 11.213343-12.136195l3.473255-1.213523c3.54417-1.238301 6.833932-3.1100874 9.70909-5.5242112l2.841496-2.3858595 2.078638 1.4502272c9.064636 6.3242275 21.269587 5.6704596 29.606768-1.5859106l3.172598 2.7395298c2.631948 2.2726806 5.627523 4.0863322 8.861285 5.3650083l2.920326 1.154739c4.89687 1.936293 8.553275 6.123547 9.812107 11.236658l7.675474 31.176175c1.397878 5.677886.240902 11.683145-3.166423 16.435259l-14.193346 18.400443-1 25.447266" stroke="#131315" stroke-linecap="round" stroke-width="2.5"/><path d="m117.982788 179.956665-.482788-43.456665" stroke="#131315" stroke-linecap="round" stroke-width="2.5"/><path d="m35.9827881 168.956665-.4827881-46.456665" stroke="#131315" stroke-linecap="round" stroke-width="2.5"/><path d="m181.900391 178.599609.785156-42.099609" stroke="#131315" stroke-linecap="round" stroke-width="2.5"/><path d="m126.954329 98.465332 7.047943 9.14282c2.360294 3.061849 6.755809 3.630572 9.817658 1.270278.504303-.388753.953206-.844498 1.334287-1.354625l5.798898-7.7625745 3.963992 7.3428935c1.574145 2.915945 5.214082 4.003688 8.130026 2.429543.674022-.363864 1.272139-.853422 1.762045-1.442231l8.009192-9.626104" stroke="#131315" stroke-linecap="round" stroke-width="2.5"/><path d="m127.858549 76 2.915694 21.2274802 6.438648-2.5265214 1.787109-6.4411932-5.570725-4.8496094z" fill="#131315"/><path d="m172.81837 98.465332 1.640614-22.465332-12.18164 12.2597656 2.884521 6.4411932 1.750244-1.5920721z" fill="#131315"/><path d="m77.0284152 5.92310869c-14.6873872-1.28497987-24.3070423 8.61776171-28.4902056 25.51925971l-.2250988.9094808-.9361063.039113c-2.0686625.0864341-3.7718995 1.7019716-3.954141 3.7850019-.161976 1.8513935.925161 3.5700553 2.6312674 4.2314909l.8803862.3413145-.0876208.9401585-.0083522.0894016c-.9512895 10.8732888 2.4491445 19.6345104 8.9525392 26.1670518 4.7980203 4.819524 11.2249429 8.0718222 15.0754206 8.4086953 3.4498299.3018211 10.3949032-2.2100104 16.101627-6.4054795 7.4681409-5.4904279 12.406072-13.1417518 13.4783401-22.611763l.097037-.8570081.83565-.2134655c1.693203-.4325256 2.951797-1.8907604 3.106638-3.6605935.171521-1.9604997-1.057302-3.7606152-2.913436-4.3278591l-.834578-.2550514-.048187-.8713499c-.9867009-17.8421347-8.792948-29.92759628-23.6611798-31.22839801z" stroke="#131315" stroke-width="2.5" transform="matrix(.99254615 -.12186934 .12186934 .99254615 -4.456685 9.319064)"/><circle cx="63.994976" cy="39.749555" fill="#131315" r="2"/><circle cx="83.994976" cy="39.749555" fill="#131315" r="2"/><path d="m70.9949756 47.1426503v7.7035906c0 1.161989.9133659 1.843585 2.0306954 1.525057l2.1786532-.6210899" stroke="#131315" stroke-linecap="round" stroke-linejoin="round" stroke-width="2.5" transform="matrix(-1 0 0 1 146.1993 0)"/><path d="m46.6238325 35.4111328s10.9160475-2.1119688 13.876985-15.321289c14.191714 8.7714171 23.2284837-2.8642579 26.2504279-6.5126282 1.510972 4.2299805 13.4064386 20.890017 16.0757476 18.7338882-1.829297-18.8050788-8.4214222-30.27368891-28.6855598-30.27368891-28.9301984 0-27.5176007 33.37371791-27.5176007 33.37371791z" fill="#131315" transform="matrix(-1 0 0 1 149.385062 0)"/><g stroke="#131315" stroke-width="2.5"><path d="m63.9327453 61.0114796s3.6353249 4.2000002 10.8000004 4.2000002c4.2528692 0 7.262181-1.4798588 9.0057712-2.6827221" stroke-linecap="round" transform="matrix(-.9961947 -.08715574 -.08715574 .9961947 152.890823 6.675357)"/><path d="m52.7838926 80.5014648 5.4271586 3.3004523c9.657457 5.8730504 21.7962054 5.8194937 31.4014631-.1385448l5.0974723-3.1619075" stroke-linecap="round"/><path d="m57.9545898 82.777832 3.7011719-4.0768732" stroke-linecap="round"/><path d="m62.6338176 85.4921875 3.0219441-4.7912287" stroke-linecap="round"/><path d="m68.1447897 86.9387207 1.510972-4.2377619" stroke-linecap="round"/><path d="m86.6338185 78.7009588 4.500854 4.0768732" stroke-linecap="round"/><path d="m84.3833916 73.1079102 3.5498359 3.6192627" stroke-linecap="round"/><path d="m82.1329646 80.7393954 4.5008539 4.0804443" stroke-linecap="round"/><path d="m78.5170898 82.7009588 1.4514541 4.2377619" stroke-linecap="round"/><path d="m74.5248337 82.7009588-.5717186 5.3522639" stroke-linecap="round"/><path d="m57.0595703 35.4112516c2.7732843-1.9714334 6.076786-2.7328662 9.9105051-2.2842985" stroke-linecap="round"/><path d="m81.0595703 35.4112516c2.7732843-1.9714334 6.076786-2.7328662 9.9105051-2.2842985" stroke-linecap="round" transform="matrix(-1 0 0 1 172.029646 0)"/><path d="m82.8897879 119.576508 2.3378779.479124c4.8991907 1.004039 9.9483867 1.031152 14.8580772.079783l.297058-.057562" stroke-linecap="round"/><path d="m59.8051758 77.1171875 2.8286418-4.7280273" stroke-linecap="round"/></g></g></svg>