<svg height="235" viewBox="0 0 400 235" width="400" xmlns="http://www.w3.org/2000/svg"><g fill="none" fill-rule="evenodd"><path d="m261.282227 145.020752v11.241018c0 3.241239.169445 6.480262.507643 9.703809l1.21013 11.534421-4.942204 1.623732c-18.141102 5.960152-37.795744 5.385725-55.557796-1.623732l.785947-19.308849c.113673-2.792681.101393-5.589067-.036804-8.380642l-.749143-15.132775-18.5-8.177734m-.053834-13.282123 10.589199-27.0744915c2.769139-7.0801419 8.609489-12.5155491 15.870029-14.7696762l7.037948-2.1850204c.683231-.1220055 1.387629-.003345 1.993182.3357647l5.69024 3.1865343c3.628672 2.032056 8.070704 1.9514231 11.623236-.2109879l4.867548-2.9628556c.571824-.3480666 1.243636-.4948782 1.908526-.4170719l1.942384.1903066c7.922869.7762493 14.630964 6.177342 17.079945 13.7520967l5.992656 18.5354242" stroke="#222" stroke-linecap="round" stroke-linejoin="round" stroke-width="2.5"/><path d="m205.5 264-1-85.5m55.25 0v85.5" stroke="#222" stroke-linecap="round" stroke-width="2.5"/><path d="m226.243612 264 4.723698-61.457203c.084649-1.101321 1.046068-1.925496 2.147389-1.840847.985848.075774 1.768369.860568 1.841284 1.846631l4.544017 61.451419" stroke="#222" stroke-linecap="round" stroke-width="2.5"/><path d="m220.631059 50.5028229s2.879177 3.3264 8.5536 3.3264 8.5536-3.3264 8.5536-3.3264" stroke="#222" stroke-linecap="round" stroke-width="2.5" transform="matrix(-.9961947 -.08715574 -.08715574 .9961947 462.04377 20.173267)"/><path d="m232.510929 6.74031373c13.990085 1.2239738 18.979901 13.69386397 19.641867 25.66460877 1.888945.5767981 3.183447 2.4132117 3.004326 4.4605726-.162587 1.8583785-1.49068 3.3347641-3.201048 3.7719473-1.897127 17.3443084-16.917856 24.7873798-24.497947 23.8566617-7.682278-.9432651-21.668287-8.5888489-19.930092-28.4565078l.006332-.0766951c-1.728316-.6704419-2.881247-2.4207439-2.711551-4.3603782.189458-2.1655178 1.961512-3.8123426 4.076869-3.9005861 2.860977-11.5606844 9.904944-22.15876902 23.611244-20.95962317z" stroke="#222" stroke-linecap="round" stroke-width="2.5" transform="matrix(.99254615 -.12186934 .12186934 .99254615 -2.625387 28.294154)"/><path d="m229.557185 39.1375747-1.284192 5.4578169c-.284873 1.2107092.482888 2.1921829 1.734192 2.1921829h2.25" stroke="#222" stroke-linecap="round" stroke-width="2.5" transform="matrix(-1 0 0 1 460.01437 0)"/><ellipse cx="221.250663" cy="35.581001" rx="6.444833" ry="6.103235" stroke="#222" stroke-linecap="round" stroke-width="2.5"/><ellipse cx="239.250663" cy="35.581001" rx="6.444833" ry="6.103235" stroke="#222" stroke-linecap="round" stroke-width="2.5"/><circle cx="221.250663" cy="36.786531" fill="#222" r="1.516176"/><circle cx="239.250663" cy="36.786531" fill="#222" r="1.516176"/><path d="m233.95166 1.75292969c1.561446 0 2.825377.49400679 3.791791 1.48202038.603244.61672001 1.389707 1.02188727 2.242064 1.15505472l1.027424.16051891c1.602337.25033994 2.992986 1.24120122 3.752831 2.67395673l.247088.46590513c.785335 1.48083811 2.260448 2.46963484 3.928621 2.63344074 2.6702.2621997 4.137213 1.5889777 4.401039 3.980334.078551.7119963-.057195 1.5638109-.407238 2.5554439-.293542.8315345-.088251 1.757639.529173 2.3872452l.301175.3071179c.479062.4885142.67515 1.1880243.51982 1.8543719l-.142711.6122141c-.23934 1.0267441-.203918 2.0984266.102699 3.1071251.192951.6347612.289427 1.2172793.289427 1.7475542 0 2.1124891-1.712511 3.8249999-3.825 3.8249999-2.96495 0-5.445072-2.2517696-5.730545-5.2029443l-.328195-3.3924859c-.175022-1.8091721-1.783529-3.1339123-3.592702-2.9588901-.220881.0213684-.439034.0650223-.65113.1302953l-6.458678 1.9876752c-2.283399.7027222-4.716289.7626231-7.031504.1731246l-7.428733-1.8914983c-1.559968-.3971978-3.146564.5454134-3.543762 2.105381-.059847.2350465-.090122.4766442-.090122.7191902v2.1525286c-.000007 3.8466446-3.118329 6.9649661-6.964973 6.9649661-2.964481 0-5.367667-2.4031863-5.367667-5.3676668 0-.7126163.249036-1.450558.747108-2.2138251l-.000002-.0000014c1.25915-1.9295737 1.625221-4.3083473 1.004478-6.5272188-.129636-.4633887-.194454-.8931108-.194454-1.2891662 0-3.844198 3.116339-6.96053621 6.960537-6.96053621-.024499 0-.048631.00026591-.072398.00079772l.000001.00000406c1.894336-.04238937 3.657334-.97710714 4.755448-2.52127414 1.962939-2.76028387 3.994325-4.14042581 6.094158-4.14042581.538128 0 1.155853.10690358 1.853174.32071076l.000001-.00000234c1.984375.60843354 4.118056.5122991 6.039674-.27212161 1.247597-.50927956 2.328292-.76391934 3.242083-.76391934z" fill="#222"/><path d="m245.757185 35.0875748h3.15l2.25-5.3999998" stroke="#222" stroke-width="2.5"/><path d="m214.707186 35.5375748h-3.6l-3.15-5.8499998" stroke="#222" stroke-width="2.5"/><path d="m227.757185 35.5375748c1.564056-1.3033797 3.835944-1.3033797 5.4 0" stroke="#222" stroke-width="2.5"/><path d="m149.79351 56.426547s2.180435 3.3905315 6.482379 2.9863526c2.252547-.2116327 4.072291-1.0772177 5.294895-1.8538979" stroke="#222" stroke-linecap="round" stroke-width="2.5" transform="matrix(-.9781476 -.20791169 -.20791169 .9781476 320.008928 33.634294)"/><path d="m158 20.5c8.802634.9654731 12.502182 5.5412082 13.319342 16.2438675.721053.59592 1.180658 1.497353 1.180658 2.5061325 0 .9223218-.3842 1.7549088-1.001289 2.3464503.000994.133255.001289.2680263.001289.4035497 0 5.3047106-1.073794 26.4246694-19.899461 26.4246693-13.309523 0-16.600539-21.846111-16.600539-27.9246693 0-14.5 12.872808-21.1107506 23-20z" stroke="#222" stroke-linecap="round" stroke-width="2.5"/><path d="m158 47-.362049 3.2584431c-.076188.6856929.297516 1.5899303.835773 2.020536l1.526276 1.2210209" stroke="#222" stroke-linecap="round" stroke-width="2.5" transform="matrix(-1 0 0 1 317.5 0)"/><path d="m282 100.496112v29.611718c0 2.685665-1.536562 5.134554-3.954776 6.302905l-36.240128 17.509275c-1.491857.720784-3.285556.095707-4.006341-1.396149-.196627-.406972-.298755-.853113-.298755-1.305096v-32.048062c0-2.827939 1.701578-5.3781 4.31285-6.463686l36.035514-14.9810561c1.529912-.6360308 3.285756.088603 3.921787 1.6185151.151736.3649878.229849.756364.229849 1.151636z" stroke="#222" stroke-linecap="round" stroke-width="2.5"/><path d="m239.5 154-8.131876-3.278982m-16.168014-6.519361-2.341505-.944155c-1.024424-.413074-1.52002-1.578396-1.106946-2.60282.193366-.479548.564943-.865573 1.036771-1.077082 1.104789-.49525 1.93338-.866687 2.485775-1.114312" stroke="#222" stroke-linecap="round" stroke-width="2.5"/><path d="m222.5 62.5-1 8" stroke="#222" stroke-width="2.5"/><path d="m238.5 61.5 2 9" stroke="#222" stroke-width="2.5"/><ellipse cx="153.425473" cy="42.016635" fill="#222" rx="1.544347" ry="1.684641" transform="matrix(.82903757 .5591929 -.5591929 .82903757 49.725395 -78.61117)"/><ellipse cx="164.140294" cy="42.387729" fill="#222" rx="1.544347" ry="1.684641" transform="matrix(.82903757 .5591929 -.5591929 .82903757 51.76474 -84.539379)"/><path d="m218.447554 147.411413.620491-2.895622c.230612-1.076191 1.289986-1.761669 2.366178-1.531056.02201.004716.043939.009806.065777.015265 1.119632.279908 1.822032 1.38984 1.595696 2.521519l-.676792 3.38396c-.196737.983688-1.153661 1.621637-2.137349 1.424899-.095862-.019172-.190019-.046052-.281555-.080378-1.149226-.43096-1.809616-1.638458-1.552446-2.838587z" stroke="#222" stroke-linecap="round" stroke-width="2.5"/><path d="m214.855709 144.934144.375752-.907142c.398087-.961062 1.396707-1.530316 2.426498-1.383203.887898.126842 1.504856.949453 1.378013 1.837351-.006487.045408-.014894.090521-.0252.135217l-.508365 2.204737c-.218424.947286-1.163419 1.538146-2.110705 1.319722-.135677-.031285-.267164-.078557-.391702-.140826-1.12679-.563395-1.626393-1.901963-1.144291-3.065856z" stroke="#222" stroke-linecap="round" stroke-width="2.5"/><path d="m222.418904 149.405479 1.185811-5.929055c.222827-1.114134 1.267861-1.867352 2.395285-1.726424 1.044908.130613 1.78609 1.083562 1.655476 2.12847-.004375.035002-.009721.069877-.016031.104583l-1.257346 6.9154c-.176286.969575-1.10519 1.612663-2.074766 1.436376-.10477-.019049-.207625-.047439-.307333-.084829-1.153062-.432398-1.822607-1.636964-1.581096-2.844521z" stroke="#222" stroke-linecap="round" stroke-width="2.5"/><path d="m226.757812 149.760376.478712-2.994029c.154889-.968731 1.057925-1.634334 2.029101-1.495595.977264.139609 1.669597 1.026429 1.567913 2.008364l-.333538 3.220884 3.5 1.5-3.418664 1.068332c-1.567627.489884-3.23557-.3838-3.725454-1.951428-.13704-.438529-.170608-.902847-.09807-1.356528z" stroke="#222" stroke-linecap="round" stroke-linejoin="round" stroke-width="2.5"/><path d="m147.185059 67.5834961-.870771 4.3473954c-.196426.980673-.868647 1.7989647-1.792529 2.1820376l-9.508448 3.9425275c-5.65154 2.3433211-9.107378 8.1053616-8.513311 14.1945434.654354 6.7071272 3.118828 13.110417 7.130049 18.525566l3.869951 5.224434c6.21317 8.38778 16.337771 12.945445 26.736351 12.035569l22.350816-1.955696c.516527-.045196.912833-.477693.912833-.996194v-10.518173c0-.552285-.447715-1-1-1-.021137 0-.04227.00067-.063364.002009l-14.686636.932485c-9.546862.60615-18.529714-4.559427-22.807797-13.115594l-2.442203-4.884406" stroke="#222" stroke-linecap="round" stroke-width="2.5"/><path d="m187.5 123.5 4-1h7.645898c1.136316 0 2.175106-.642007 2.683282-1.658359l2.350646-4.701293c.191446-.382893.605378-.601456 1.02954-.543616l8.804389 1.200598c.716495.097704 1.376535-.403926 1.474239-1.120421.007995-.058631.012006-.117736.012006-.176909 0-.886881-.590412-1.665315-1.444446-1.904445l-9.449735-2.645926c-1.050634-.294177-2.161597-.296311-3.213353-.006171l-12.892466 3.556542" stroke="#222" stroke-linecap="round" stroke-width="2.5"/><path d="m148 40c1.666667-2 3.666667-3 6-3" stroke="#222" stroke-linecap="round" stroke-width="2.5"/><path d="m162.5 37.5c2-.3333333 3.833333 0 5.5 1" stroke="#222" stroke-linecap="round" stroke-width="2.5" transform="matrix(.99862953 .05233596 -.05233596 .99862953 2.211965 -8.596525)"/><path d="m148.008303 32.6324046c8.994465-1.0033138 13.491697-3.380782 13.491697-7.1324046 5.166667 0 7.99056 3.5512288 8.47168 10.6536865l3.004638.8463135c.015788-6-.309651-10.3333333-.976318-13-1.532833-6.1313314-7.5-11.5-15-11.5-10 0-15.5 1.5-19 6.5-10 12.5-4 23-18 34.5-1.5 9.5 8 25.5 21.5 9.5-2.298719-7.1834973-2.120512-15.6054579.534622-25.2658816l.000006.0000016c.759379-2.7629217 3.125958-4.7840585 5.973675-5.1017154z" fill="#222"/><g stroke-width="2.5"><path d="m129 103 2.68092 23.360213c1.235227 10.763167.580319 21.659392-1.935181 32.197124l-2.745739 11.502233 13.82872 2.683372c11.318379 2.196256 23.017257 1.342475 33.896844-2.473784l10.823264-3.796502-3.15025-18.498456c-.280962-1.649827-.487825-3.31142-.619965-4.979775l-1.278613-16.143351" stroke="#222" stroke-linecap="round" stroke-linejoin="round"/><path d="m207.5 135.5 6.126941.942606c.16564.025483 1.415156.345518 3.748547.960104l4.101563 1.90271m9.891073-3.343506 4.44755.641779c1.122884.486535 1.684326-.009373 1.684326-1.487726 0-1.888482-1.208429-2.518777-3-3.115967l-1.947178-.649059c-.679384-.226462-1.255347-.688483-1.623795-1.302563l-.179027-.298378c-.455902-.759836-1.31721-1.179099-2.196481-1.06919l-5.679561.709945c-.580884.072611-1.167983.081243-1.75075.025741l-9.623208-.916496" stroke="#222" stroke-linecap="round"/><path d="m232 131 5.5-2.5" stroke="#222" stroke-linecap="round"/><path d="m202.5 134.677734 3.578764 1.662168c.500895.232643 1.095545.015181 1.328187-.485714.061294-.13197.093049-.275727.093049-.421237v-1.682951c0-2.007597 1.082848-3.859102 2.83262-4.843349l3.314989-1.864681c.481358-.270764.652078-.880479.381314-1.361837-.114099-.202844-.295376-.359538-.512596-.443084l-11.016327-4.237049" stroke="#222" stroke-linecap="round"/><path d="m161 67 1.566074 3.3692001c.281235.6050404.756142 1.0990632 1.349618 1.4039447l8.154254 4.1890134c5.568735 2.860777 9.069947 8.5956168 9.069947 14.8561957v10.7795461" stroke="#222" stroke-linecap="round"/><path d="m176.912109 93.9477539c3.920359 4.3493442 5.513391 10.3168471 4.282266 16.0413851l-.694375 3.228738" stroke="#222" stroke-linecap="round" stroke-linejoin="round"/><path d="m202.5 110.5v-8.379883l-3.583008 8.379883" stroke="#222" stroke-linecap="round" stroke-linejoin="round"/><path d="m229.001953 139.463288 8.498047 1.533782" stroke="#222" stroke-linecap="round"/><path d="m128.690918 170.688477c-3.744183 12.597545-4.553627 25.885245-2.366258 38.844121l6.67534 39.54748v14.919922" stroke="#222" stroke-linecap="round"/><path d="m183.697754 167.304687.604598 7.691416c1.129096 14.363823.860384 28.803357-.802352 43.115225l-2.342754 20.165076c-.104821.902236-.226946 1.802378-.366307 2.699928l-3.574843 23.023668" stroke="#222" stroke-linecap="round"/><path d="m159.47433 199.115234-1.47433 43.373047-1.25 21.511719" stroke="#222" stroke-linecap="round" stroke-linejoin="round"/><path d="m126 209.835938h-122.45894092" stroke="#222" stroke-linecap="round"/><path d="m205 209.835938h-20.458941" stroke="#222" stroke-linecap="round"/><path d="m397 209.835938h-136.458941" stroke="#222" stroke-linecap="round"/><path d="m31.608398 166.835938h18v43h-18z" stroke="#222" stroke-linecap="round"/><path d="m59.608398 196.835938h39v13h-39z" stroke="#222" stroke-linecap="round"/><path d="m59.608398 191.335938h44v5.5h-44z" stroke="#222" stroke-linecap="round"/><path d="m49.608398 160.835938h10v49h-10z" stroke="#222" stroke-linecap="round"/><path d="m240.5 98.25 1.602668.1073174c4.531324.3034251 9.082328-.0947881 13.492097-1.1805596" stroke="#222" stroke-linecap="round"/><path d="m72 182h16l-2 9.335938h-12z" stroke="#222" stroke-linecap="round"/><path d="m73.6323242 182c-4.3111576-6.873051-5.7769792-15.154586-4.0868754-23.089853l.4062114-1.907217c5.567542 6.067529 8.4159927 14.145422 7.8857657 22.363165l-.1699454 2.633905z" stroke="#222" stroke-linecap="round" stroke-linejoin="round"/><path d="m74.6923828 163.324219v-.073998c0-5.744021 1.34092-11.408732 3.9160156-16.54319l.5864895 1.117198c2.1372909 4.071304 3.5872939 8.467734 4.2914402 13.011709" stroke="#222" stroke-linecap="round" stroke-linejoin="round"/><path d="m86.0288086 182c4.3534498-8.065083 5.6770735-17.42182 3.7314845-26.377978l-.3581935-1.648877c-6.092192 6.059129-9.9806455 13.983316-11.0455129 22.509389l-.6891062 5.517466" stroke="#222" stroke-linecap="round" stroke-linejoin="round"/><path d="m81.8417969 182c2.1754557-7.115885 3.8702799-13.061035 5.0844726-17.835449" stroke="#222" stroke-linecap="round"/><rect height="50" rx="8" stroke="#131315" stroke-linecap="round" width="76" x="305" y="35.002234"/></g><path d="m317.620117 47.6303711v3.3837891h1.472168c1.179199 0 1.882324-.6372071 1.882324-1.706543 0-1.0473633-.688476-1.6772461-1.860351-1.6772461zm1.508789 4.9804687h-1.508789v3.8891602h-2.072754v-10.5688477h3.837891c2.299805 0 3.706055 1.2744141 3.706055 3.3691407 0 1.3696289-.725098 2.512207-1.875 2.9663086l2.116699 4.2333984h-2.34375zm9.375-2.8051757c-1.040039 0-1.662597.6958007-1.662597 1.8530273h3.273925c0-1.1572266-.600586-1.8530273-1.611328-1.8530273zm1.655274 4.4238281h1.889648c-.168457 1.4282226-1.59668 2.446289-3.47168 2.446289-2.351074 0-3.69873-1.3183593-3.69873-3.6108398v-1.2963867c0-2.1166992 1.464844-3.515625 3.662109-3.515625 2.138672 0 3.508301 1.40625 3.508301 3.5742187v1.1132813h-5.207519v.4394531c0 1.0546875.681152 1.7431641 1.728515 1.7431641.805664 0 1.442871-.366211 1.589356-.8935547zm6.430664 2.4023437c-1.523438 0-2.548828-.9814453-2.548828-2.4389648s1.062011-2.3144531 3.054199-2.4536133l1.889648-.1171875v-.6445312c0-.703125-.483398-1.1132813-1.311035-1.1132813-.695801 0-1.21582.3076172-1.384277.8129883h-1.948242c.146484-1.4648438 1.472168-2.409668 3.391113-2.409668 2.072754 0 3.237305.9887696 3.237305 2.7539063v5.4785156h-1.904297v-1.0766602h-.175782c-.395507.7617188-1.245117 1.2084961-2.299804 1.2084961zm.688476-1.6040039c.996094 0 1.706543-.6298828 1.706543-1.5307617v-.5859375l-1.552734.0952149c-.9375.0585937-1.413574.4174804-1.413574 1.040039 0 .600586.483398.9814453 1.259765.9814453zm7.88086-3.2666015v1.3330078c0 1.1132812.637207 1.7944336 1.677246 1.7944336 1.032715 0 1.662597-.6811524 1.662597-1.7944336v-1.3330078c0-1.1132813-.629882-1.7871094-1.662597-1.7871094-1.040039 0-1.677246.6738281-1.677246 1.7871094zm3.317871 3.3471679h-.153809c-.27832.9814454-1.07666 1.5161133-2.263183 1.5161133-1.845704 0-2.944336-1.274414-2.944336-3.4716797v-1.3916015c0-2.1972657 1.098632-3.4716797 2.944336-3.4716797 1.16455 0 1.970214.5419922 2.241211 1.508789h.146484v-4.453125h2.094726v11.1547852h-2.065429zm5.361328 4.3066407c-.344238 0-.710449-.0073243-.769043-.0146485v-1.640625c.051269.0146485.336914.0219727.446777.0219727.812989 0 1.259766-.2783203 1.450196-.9155274l.080566-.3076171-2.841797-8.1372071h2.211914l1.78711 6.2329102h.124511l1.78711-6.2329102h2.124023l-2.783203 8.1811524c-.695801 2.0800781-1.640625 2.8125-3.618164 2.8125zm11.660156-2.7758789c-.88623 0-1.611328-.7470704-1.611328-1.6479493 0-.9082031.725098-1.6552734 1.611328-1.6552734.886231 0 1.611328.7470703 1.611328 1.6552734 0 .9008789-.725097 1.6479493-1.611328 1.6479493zm-45.102539 13.0854492-4.665527-2.1606446v-2.2851562l6.826172 3.6328125v1.7724609l-6.826172 3.6254883v-2.277832l4.665527-2.1606445zm11.813965 7.368164h-7.602539v-1.7871093h7.602539z" fill="#131315" fill-rule="nonzero"/></g></svg>