<svg height="25" viewBox="0 0 40 25" width="40" xmlns="http://www.w3.org/2000/svg"><path d="m4.1373434 10.391569 6.9179019 7.0186784c1.9933417 2.027153 5.2596562 2.027153 7.2528805 0l5.4774339-5.5706499c.7872873-.8006826 2.0770483-.8006826 2.8643355 0l2.7134759 2.7597316-6.9011489 7.0356898c-2.1439664 2.180478-4.9580545 3.2537526-7.7721425 3.2537526-2.8140881 0-5.62812918-1.0902977-7.77217781-3.2707757l-6.91790189-7.0186667zm28.8776503-7.12074636 6.9179371 7.03566626-4.1540964 4.224748-6.9179371-7.03560755c-2.0100126-2.04427002-5.2428679-2.04427002-7.2528805 0l-5.4773166 5.57056775c-.7872872.8006708-2.0770482.8006708-2.8643354 0l-2.7135698-2.7597082 6.9179136-7.03566626c4.2880503-4.36109568 11.2562348-4.36109568 15.5442851 0z" fill="#fff"/></svg>