<svg width="168" height="22" viewBox="0 0 168 22" xmlns="http://www.w3.org/2000/svg"><title>semaphore-logo-white</title><g fill="#FFF" fill-rule="evenodd"><path d="M19.975 4.915a.54.54 0 0 1 .554.233s.423.689.674 1.239c.25.548.492 1.318.492 1.318a.537.537 0 0 1-.189.57l-1.365.973a.687.687 0 0 0-.258.586s.076.52.087.968c.01.44-.036.948-.036.948a.682.682 0 0 0 .287.57l1.416.901c.174.11.272.361.218.56 0 0-.202.782-.424 1.344-.22.561-.606 1.27-.606 1.27a.537.537 0 0 1-.54.26l-1.65-.306a.69.69 0 0 0-.6.222s-.345.444-.683.782c-.376.376-.905.777-.905.777a.69.69 0 0 0-.23.597l.277 1.655a.537.537 0 0 1-.27.536s-.717.373-1.283.585c-.565.211-1.35.399-1.35.399a.537.537 0 0 1-.554-.228l-.877-1.43a.686.686 0 0 0-.566-.297s-.45.036-.861.022c-.423-.013-.895-.082-.895-.082a.684.684 0 0 0-.586.256l-.976 1.366a.538.538 0 0 1-.57.188s-.771-.242-1.321-.493c-.549-.25-1.236-.672-1.236-.672a.537.537 0 0 1-.232-.553l.349-1.45c.072-.301.307-.723.525-.941l3.612-3.623a3.357 3.357 0 0 0 4.56-4.56l3.618-3.619c.219-.218.64-.453.94-.525l1.454-.346zM2.073 17.134a.54.54 0 0 1-.554-.233s-.423-.688-.674-1.238c-.25-.549-.492-1.318-.492-1.318a.537.537 0 0 1 .188-.57l1.366-.974a.687.687 0 0 0 .257-.586s-.075-.52-.086-.967c-.01-.44.036-.949.036-.949a.682.682 0 0 0-.287-.57l-1.416-.9a.537.537 0 0 1-.218-.56s.202-.782.423-1.345c.221-.56.607-1.27.607-1.27a.537.537 0 0 1 .54-.26l1.65.306a.69.69 0 0 0 .6-.222s.345-.443.683-.782c.376-.375.905-.776.905-.776a.69.69 0 0 0 .23-.598l-.277-1.654a.537.537 0 0 1 .27-.536S6.541.758 7.107.546C7.672.336 8.456.148 8.456.148a.537.537 0 0 1 .555.227l.877 1.431a.686.686 0 0 0 .566.296s.45-.035.861-.022c.423.014.895.083.895.083a.684.684 0 0 0 .586-.257l.976-1.365a.538.538 0 0 1 .57-.189s.771.243 1.321.493c.549.25 1.236.672 1.236.672.176.105.28.352.232.554l-.349 1.45a2.35 2.35 0 0 1-.525.94l-3.612 3.624a3.357 3.357 0 0 0-4.56 4.56l-3.618 3.618c-.219.219-.64.454-.94.526l-1.454.345z" fill-rule="nonzero"/><path d="M30.176 14.095h3.257c.126 1.515 1.465 2.146 3.005 2.146 1.515 0 2.373-.631 2.373-1.59 0-.783-.53-1.314-1.843-1.667l-2.828-.758c-2.348-.63-3.636-1.919-3.636-3.99 0-2.979 2.651-4.14 5.429-4.14 3.08 0 5.403 1.44 5.63 4.494h-3.231c-.101-1.464-1.263-2.045-2.601-2.045-1.313 0-2.02.556-2.02 1.465 0 .732.454 1.237 1.818 1.616l2.828.757c2.247.606 3.661 1.793 3.661 4.015 0 3.156-2.828 4.292-5.757 4.292-3.51 0-5.858-1.641-6.085-4.595zm15.316 4.343V4.348h10.1V7.05h-6.894v2.853h5.58v2.702h-5.58v3.131h6.893v2.702h-10.1zm13.952 0V4.348h3.939l3.257 6.389 3.282-6.389h3.712v14.09h-3.055V8.515l-3.156 6.16h-1.768L62.5 8.516v9.923h-3.055zm17.31 0l5.176-14.09h3.535l5.176 14.09h-3.358l-.884-2.55h-5.53l-.858 2.55h-3.257zm4.899-4.974h3.964L83.622 7.53l-1.97 5.934zm12.108 4.974V4.348h4.924c3.964 0 6.388 1.49 6.388 4.773 0 3.282-2.424 4.772-6.388 4.772h-1.717v4.545h-3.207zm3.207-7.171h1.692c2.222 0 3.08-.606 3.08-2.146 0-1.515-.858-2.147-3.08-2.147h-1.692v4.293zm11.655 7.17V4.349h3.206v5.505h5.681V4.348h3.207v14.09h-3.207V12.63h-5.68v5.808h-3.207zm22.915-2.524c2.828 0 3.51-2.298 3.51-4.52 0-2.222-.682-4.52-3.51-4.52s-3.51 2.298-3.51 4.52c0 2.222.682 4.52 3.51 4.52zm0 2.777c-4.57 0-6.817-2.929-6.817-7.297s2.247-7.297 6.817-7.297 6.818 2.929 6.818 7.297-2.247 7.297-6.818 7.297zm10.822-.252V4.348h4.923c3.964 0 6.388 1.49 6.388 4.773 0 2.222-1.212 3.484-2.929 4.115l3.586 5.202h-3.687l-2.929-4.545h-2.146v4.545h-3.206zm3.206-7.171h1.692c2.222 0 3.08-.606 3.08-2.146 0-1.515-.858-2.147-3.08-2.147h-1.692v4.293zm12.21 7.17V4.349h10.1V7.05h-6.893v2.853h5.58v2.702h-5.58v3.131h6.893v2.702h-10.1z"/></g></svg>